PathFileType	4	(X/Y/Z)
DataRate	CameraRate	NumFrames	NumMarkers	Units	OrigDataRate	OrigDataStartFrame	OrigNumFrames	
  100.0	  100.0	    6	     56	     mm	  100.0	      428	    855
Frame#	Time	LASI			RASI			LPSI			RPSI			RTH1			RTH2			RTH3			RLFC			RMFC			LTH1			LTH2			LTH3			LLFC			LMFC			RTB1			RTB2			RTB3			RLMAL			RMMAL			LTB1			LTB2			LTB3			LMMAL			LLMAL			RCAL			RTOE			RMT5			LCAL			LTOE			LMT5			LACR			RACR			CLAV			C7			LASH			LPSH			RASH			RPSH			RUA1			RUA2			RUA3			RLEL			RMEL			LUA1			LUA2			LUA3			LLEL			LMEL			RFAsuperior			RFAradius			RFAulna			LFAsuperior			LFAradius			LFAulna			RHJC			LHJC			
		X1	Y1	Z1	X2	Y2	Z2	X3	Y3	Z3	X4	Y4	Z4	X5	Y5	Z5	X6	Y6	Z6	X7	Y7	Z7	X8	Y8	Z8	X9	Y9	Z9	X10	Y10	Z10	X11	Y11	Z11	X12	Y12	Z12	X13	Y13	Z13	X14	Y14	Z14	X15	Y15	Z15	X16	Y16	Z16	X17	Y17	Z17	X18	Y18	Z18	X19	Y19	Z19	X20	Y20	Z20	X21	Y21	Z21	X22	Y22	Z22	X23	Y23	Z23	X24	Y24	Z24	X25	Y25	Z25	X26	Y26	Z26	X27	Y27	Z27	X28	Y28	Z28	X29	Y29	Z29	X30	Y30	Z30	X31	Y31	Z31	X32	Y32	Z32	X33	Y33	Z33	X34	Y34	Z34	X35	Y35	Z35	X36	Y36	Z36	X37	Y37	Z37	X38	Y38	Z38	X39	Y39	Z39	X40	Y40	Z40	X41	Y41	Z41	X42	Y42	Z42	X43	Y43	Z43	X44	Y44	Z44	X45	Y45	Z45	X46	Y46	Z46	X47	Y47	Z47	X48	Y48	Z48	X49	Y49	Z49	X50	Y50	Z50	X51	Y51	Z51	X52	Y52	Z52	X53	Y53	Z53	X54	Y54	Z54	X55	Y55	Z55	X56	Y56	Z56	

459	4.59000	901.44486	1083.22136	-481.26951	663.32569	1091.93963	-471.16969	822.55660	1114.26855	-644.89246	736.99298	1113.43587	-641.60461	600.05434	833.84209	-572.39331	620.62622	758.02219	-506.84634	615.21101	662.30647	-583.99909	615.15374	543.34658	-572.83872	727.17955	525.82686	-588.19933	947.17431	866.27929	-595.07746	955.50631	753.44332	-530.93605	942.98508	656.81648	-591.25241	942.22634	536.08819	-572.40996	833.26405	522.67776	-589.12153	651.41906	409.79514	-555.43338	611.46969	356.62388	-604.27455	661.27172	228.98169	-584.52792	652.36635	118.86572	-632.23113	729.07751	140.15153	-601.86706	917.01125	418.96856	-559.80501	928.95244	320.77292	-646.79236	888.15449	230.10080	-580.64756	809.89094	126.81747	-595.93629	890.10853	110.33977	-621.86477	720.91694	97.97218	-683.70596	675.85918	74.05885	-461.53580	610.53602	55.24270	-539.98653	831.01059	87.23072	-680.59576	853.60061	76.45724	-454.57416	920.22347	55.98821	-515.15434	915.12557	1605.95651	-592.25149	643.90725	1587.87076	-571.85173	765.23535	1528.42175	-487.73849	780.87081	1603.46159	-612.40472	928.20861	1557.72861	-531.15084	933.46354	1547.65028	-657.37482	636.31905	1548.24769	-512.99330	627.58273	1550.66480	-629.13482	506.95826	1498.59811	-580.51662	487.87028	1409.08803	-587.92978	415.59639	1406.80691	-582.45778	348.30915	1383.52742	-573.44004	393.17518	1341.91196	-511.02819	1027.28874	1505.25197	-634.73440	1076.50247	1417.87914	-615.27728	1149.82369	1438.52894	-619.34874	1224.14465	1401.58769	-614.87373	1186.27050	1356.98948	-553.93114	281.93737	1341.50996	-554.75728	115.68990	1304.99055	-439.89241	116.06929	1267.94124	-495.12442	1299.28834	1342.67933	-602.58059	1456.08536	1320.60665	-514.28082	1452.57515	1287.01052	-573.51321	675.56503	989.98548	-553.54420	881.83700	980.06514	-557.56788	
460	4.60000	901.53616	1083.19751	-481.70405	663.39255	1091.86432	-471.26075	822.50660	1114.22190	-645.16295	736.95491	1113.37404	-641.77935	600.39530	833.84951	-572.49998	620.76968	758.02326	-506.73014	615.30846	662.10497	-583.93277	615.20554	543.29652	-572.60685	727.23719	525.80265	-588.16298	947.18554	866.24513	-595.27134	955.57332	753.43577	-531.22384	943.11917	656.84324	-591.67083	942.28589	536.08475	-572.69471	833.30153	522.65964	-589.30096	651.52395	409.76505	-555.30168	611.51474	356.57162	-604.47964	661.31559	228.87949	-584.60607	652.40655	118.86385	-632.22963	729.12230	140.12411	-601.86591	917.06015	418.98578	-559.89216	928.98617	320.74250	-646.94371	888.17332	230.09696	-580.71277	809.87159	126.83992	-595.91436	890.26578	110.34712	-622.00126	720.93906	97.95814	-683.69891	675.86966	74.04411	-461.51513	610.51388	55.25237	-539.96874	831.02313	87.23479	-680.62517	853.60678	76.45772	-454.56763	920.21510	55.97154	-515.25338	916.17683	1604.94475	-592.63046	643.03421	1586.67336	-571.47425	765.27693	1528.03606	-487.86144	780.87824	1603.05320	-612.53531	929.11732	1556.33719	-531.64468	934.06718	1546.54370	-657.78785	635.90615	1546.10583	-512.65480	626.91753	1549.54646	-628.84230	507.58180	1492.62349	-579.28887	491.63722	1402.63266	-587.56159	419.53261	1397.69552	-581.34982	353.22780	1371.84170	-571.94864	400.16663	1331.16746	-510.58224	1026.71163	1500.81867	-634.36641	1072.94216	1411.66620	-614.38219	1146.97438	1429.70741	-618.07026	1219.78357	1390.11195	-613.12844	1179.83819	1346.75003	-552.41477	288.64646	1327.31731	-553.33912	124.82139	1283.52085	-437.54210	126.08165	1247.18846	-493.36790	1292.51103	1328.39790	-600.41225	1447.81369	1300.17209	-511.04193	1443.26936	1266.94769	-570.50507	675.60061	989.92466	-553.71772	881.86756	980.02694	-557.89070	
461	4.61000	901.60010	1083.16857	-482.04155	663.44096	1091.79726	-471.39034	822.46777	1114.16936	-645.42680	736.92543	1113.30327	-641.96634	600.60597	833.83742	-572.58233	620.85189	758.02565	-506.67834	615.45636	661.87162	-583.79874	615.24265	543.21541	-572.46799	727.28225	525.79375	-588.13427	947.19142	866.21190	-595.42519	955.61849	753.43974	-531.49310	943.36039	656.90771	-592.18284	942.34017	536.07770	-572.97092	833.31633	522.64277	-589.50773	651.60652	409.73806	-555.23358	611.52732	356.57889	-604.58081	661.37381	228.85908	-584.59005	652.44122	118.86519	-632.23560	729.16237	140.10558	-601.86437	917.09553	418.99509	-560.01814	929.02816	320.71200	-647.07204	888.19107	230.09603	-580.77424	809.84128	126.84678	-595.90863	890.55342	110.37635	-622.23869	720.95844	97.94938	-683.69747	675.89220	74.03734	-461.52011	610.61934	55.21186	-539.98091	831.03897	87.23789	-680.65673	853.61420	76.46336	-454.55899	920.20367	55.96748	-515.29901	917.45158	1603.94307	-593.12836	642.36254	1585.54428	-570.93015	765.48352	1527.61616	-487.98820	781.05065	1602.61039	-612.67012	930.06860	1555.10236	-532.06319	934.86495	1545.34174	-658.17205	635.59594	1543.78722	-512.38985	626.24572	1548.59742	-628.48343	508.21672	1486.68150	-577.98817	495.25330	1396.28156	-587.33250	423.67516	1388.47901	-580.31301	358.56030	1359.86742	-570.66709	407.52546	1320.49298	-509.93674	1026.15239	1496.66994	-633.92491	1069.13707	1405.56614	-613.81471	1143.70046	1420.79980	-617.00985	1214.94040	1378.53416	-611.52067	1172.95893	1336.57829	-551.10802	295.92623	1312.88190	-551.92944	134.78776	1262.09795	-435.33903	136.95737	1226.42582	-491.70654	1285.13251	1314.06717	-598.39209	1438.69852	1279.98498	-507.75597	1433.12305	1247.06294	-567.32459	675.62809	989.85952	-553.88526	881.89236	979.98466	-558.16562	
462	4.62000	901.65675	1083.13426	-482.28297	663.49002	1091.74771	-471.54102	822.44549	1114.11021	-645.67882	736.91099	1113.22448	-642.17308	600.69757	833.80710	-572.64531	620.88193	758.02376	-506.68388	615.65197	661.73303	-583.62287	615.28484	543.14171	-572.46781	727.31173	525.79170	-588.11202	947.20122	866.18618	-595.59652	955.64171	753.45002	-531.72412	943.56800	656.96043	-592.60103	942.37911	536.06928	-573.18233	833.32538	522.63552	-589.70380	651.65588	409.71466	-555.21549	611.51737	356.60050	-604.62544	661.43010	228.90951	-584.47843	652.46317	118.86094	-632.24434	729.19122	140.09506	-601.87212	917.11918	418.98939	-560.17079	929.06687	320.67913	-647.17832	888.20316	230.09093	-580.83613	809.82880	126.84436	-595.91878	890.70448	110.38912	-622.37256	720.97292	97.94423	-683.70160	675.91392	74.03573	-461.54010	610.73128	55.16864	-540.01085	831.05147	87.23506	-680.68029	853.62055	76.47026	-454.56469	920.20241	55.96851	-515.28372	918.94210	1602.94227	-593.61652	641.76748	1584.43626	-570.32738	765.78928	1527.18067	-488.15401	781.32223	1602.15165	-612.84415	930.91085	1553.82994	-532.33228	935.82702	1544.06014	-658.42906	635.30885	1541.49914	-512.20700	625.46632	1547.69293	-628.07023	509.05974	1480.74985	-576.77932	498.89276	1389.97427	-587.20937	428.22404	1379.12262	-579.43192	364.50479	1347.65625	-569.57454	415.36730	1310.06225	-509.09891	1025.60754	1492.70789	-633.41720	1065.05539	1399.55698	-613.54898	1139.93648	1411.88204	-616.12690	1209.54651	1366.97548	-610.03597	1165.60435	1326.56320	-550.05286	303.98738	1298.23454	-550.60793	145.71969	1240.78033	-433.29864	148.94042	1205.54179	-489.96862	1277.10789	1299.84317	-596.52581	1428.67292	1260.15848	-504.57608	1422.15120	1227.47709	-564.14379	675.65663	989.79619	-554.02883	881.92001	979.93662	-558.39213	
463	4.63000	901.73784	1083.07348	-482.49270	663.55989	1091.71219	-471.67523	822.43275	1114.04647	-645.91055	736.91086	1113.13627	-642.39138	600.68356	833.77127	-572.67237	620.87672	758.01658	-506.72749	615.94300	661.82466	-583.53982	615.32673	543.09906	-572.55609	727.32356	525.78433	-588.10008	947.21183	866.15452	-595.77156	955.64327	753.45493	-531.89926	943.59802	656.94812	-592.74216	942.40562	536.05814	-573.31483	833.34166	522.63251	-589.84346	651.67549	409.69493	-555.21221	611.51960	356.59475	-604.60965	661.45691	228.95039	-584.38838	652.46946	118.84798	-632.24986	729.20628	140.08698	-601.88426	917.13379	418.97326	-560.30038	929.09255	320.64303	-647.26173	888.20726	230.07651	-580.89202	809.83917	126.83564	-595.93619	890.58485	110.36337	-622.29686	720.97994	97.93696	-683.70596	675.92026	74.03333	-461.54965	610.76527	55.15425	-540.03606	831.05377	87.22339	-680.68715	853.62265	76.47293	-454.57975	920.20704	55.96707	-515.26121	920.48222	1601.94360	-593.93564	641.06408	1583.24607	-569.81913	766.07636	1526.75944	-488.36339	781.57518	1601.70732	-613.06102	931.52294	1552.34512	-532.41471	936.81557	1542.77871	-658.53902	634.95792	1539.44048	-512.05274	624.54579	1546.62080	-627.61803	510.31350	1474.77426	-575.80008	502.80901	1383.68290	-587.14799	433.30522	1369.74509	-578.72803	371.10580	1335.50641	-568.59066	423.73800	1300.06218	-508.29078	1024.97305	1488.75962	-632.89176	1060.69755	1393.66808	-613.42412	1135.72158	1403.10083	-615.30436	1203.61419	1355.61993	-608.62574	1157.78994	1316.81903	-549.16214	312.85823	1283.68266	-549.48280	157.66448	1219.69337	-431.39226	162.05876	1184.70198	-488.14423	1268.47251	1285.93539	-594.69736	1417.76672	1240.74643	-501.59350	1410.41150	1208.28675	-561.15715	675.68671	989.74084	-554.14328	881.94803	979.86656	-558.60674	
464	4.64000	901.85576	1082.97029	-482.72822	663.64875	1091.67049	-471.77030	822.41376	1113.97938	-646.11828	736.91165	1113.04110	-642.59880	600.45887	833.73709	-572.56967	620.85369	758.00543	-506.79312	616.32545	662.14570	-583.63790	615.34633	543.07952	-572.63108	727.31934	525.76645	-588.11025	947.21235	866.10599	-595.91328	955.62541	753.44750	-532.02392	943.44630	656.86781	-592.61995	942.42705	536.03913	-573.40395	833.35872	522.61964	-589.92810	651.67863	409.67776	-555.21012	611.54906	356.55648	-604.51584	661.44598	228.91780	-584.41968	652.46339	118.82979	-632.25123	729.20828	140.07515	-601.89233	917.14058	418.95623	-560.37516	929.09613	320.60338	-647.31640	888.20331	230.05098	-580.93084	809.85247	126.81785	-595.95188	890.31112	110.31471	-622.10070	720.97673	97.92315	-683.70698	675.91233	74.02658	-461.54289	610.74782	55.15797	-540.05100	831.04146	87.20269	-680.67461	853.61889	76.46963	-454.59050	920.20786	55.96101	-515.27150	921.84428	1600.95089	-594.02085	640.15591	1581.89841	-569.51869	766.25835	1526.38466	-488.59079	781.72313	1601.31031	-613.29483	931.88715	1550.61690	-532.33383	937.67656	1541.59314	-658.56949	634.54263	1537.67091	-511.85490	623.54774	1545.20538	-627.15214	512.04476	1468.74720	-575.04363	507.19789	1377.44041	-587.08942	438.86971	1360.60860	-578.12299	378.18973	1323.81906	-567.64112	432.58883	1290.53974	-507.76248	1024.11800	1484.71391	-632.40821	1056.11102	1387.97894	-613.26967	1131.16925	1394.61489	-614.40200	1197.22900	1344.63754	-607.22429	1149.56605	1307.45269	-548.25114	322.32050	1269.66627	-548.56805	170.56094	1198.99407	-429.58535	176.09401	1164.28479	-486.39534	1259.31186	1272.51996	-592.81551	1406.07171	1221.75765	-498.79221	1397.97172	1189.56426	-558.46508	675.71290	989.68749	-554.23787	881.96930	979.76545	-558.84573	
